<svg width="202" height="202" viewBox="0 0 202 202" fill="none" xmlns="http://www.w3.org/2000/svg">
<circle cx="101" cy="101" r="100" stroke="white"/>
<path d="M133.668 93.1574C133.668 81.1232 133.668 69.6917 124.039 61.8715C105.257 46.9616 45.9854 80.1067 86.1335 77.5119C93.351 77.5119 97.565 79.315 97.565 80.5205C97.565 81.7259 90.9452 81.7259 84.3304 83.529C80.1981 84.7702 76.3519 86.8594 72.9858 89.4082C69.7218 91.8804 66.8972 94.9758 64.8438 98.5207C50.1432 123.897 80.3565 152.317 109.002 138.281C120.31 133.934 133.943 149.967 133.938 136.043C133.938 125.322 133.668 93.1574 133.668 93.1574ZM105.385 135.875C79.6924 142.908 61.0078 108.374 80.7191 91.3492C113.21 64.875 142.688 123.238 105.385 135.87V135.875ZM121.562 70.6214C124.366 75.8978 126.68 87.7175 118.604 89.4797C112.398 90.0161 107.306 83.953 102.52 81.0159C97.5701 77.4915 91.6603 75.765 85.3571 75.4432C83.7277 75.3615 81.8276 74.8609 81.4751 73.9875C81.1891 73.3388 82.1187 72.0924 82.8083 71.3875C87.5126 67.669 94.6433 65.3807 100.599 63.9147C107.852 62.2393 116.51 63.6286 121.031 69.8041L121.562 70.6214Z" fill="white"/>
</svg>
