<svg width="73" height="84" viewBox="0 0 73 84" fill="none" xmlns="http://www.w3.org/2000/svg">
<path d="M72.6676 35.1574C72.6676 23.1232 72.6676 11.6917 63.0392 3.87153C44.2575 -11.0384 -15.0146 22.1067 25.1335 19.5119C32.351 19.5119 36.565 21.315 36.565 22.5205C36.565 23.7259 29.9452 23.7259 23.3304 25.529C19.1981 26.7702 15.3519 28.8594 11.9858 31.4082C8.72183 33.8804 5.89716 36.9758 3.84378 40.5207C-10.8568 65.8968 19.3565 94.3171 48.0016 80.2806C59.3105 75.9338 72.9435 91.9675 72.9384 78.0433C72.9384 67.3219 72.6676 35.1574 72.6676 35.1574ZM44.3852 77.8748C18.6924 84.9084 0.00775337 50.3739 19.7191 33.3492C52.2105 6.87497 81.6882 65.2378 44.3852 77.8697V77.8748ZM60.5619 12.6214C63.3661 17.8978 65.68 29.7175 57.6044 31.4797C51.3983 32.0161 46.3058 25.953 41.5197 23.0159C36.5701 19.4915 30.6603 17.765 24.3571 17.4432C22.7277 17.3615 20.8276 16.8609 20.4751 15.9875C20.1891 15.3388 21.1187 14.0924 21.8083 13.3875C26.5126 9.66899 33.6433 7.38065 39.5991 5.91469C46.8523 4.2393 55.5102 5.62864 60.0307 11.8041L60.5619 12.6214Z" fill="white"/>
</svg>
